<svg xmlns="http://www.w3.org/2000/svg" width="800" height="640" viewBox="0 0 400 320"><title id="title">四腔心脏示意</title><desc id="desc">四个心腔、房室瓣、心室中隔与大血管分组；颜色区分示意血路。</desc><g id="anatomy_cardiovascular_lymph" stroke-linecap="round" stroke-linejoin="round"><g id="great-vessels-496"><path d="M178 138L165 80L165 39" fill="none" stroke="#2b5662" stroke-width="26" stroke-linecap="round" stroke-linejoin="round" /><path d="M178 138L165 80L165 39" fill="none" stroke="#86b7d3" stroke-width="22" stroke-linecap="round" stroke-linejoin="round" /><path d="M202 135Q199 64 225 57Q260 47 259 86L262 115" fill="none" stroke="#2b5662" stroke-width="28" stroke-linecap="round" stroke-linejoin="round" /><path d="M202 135Q199 64 225 57Q260 47 259 86L262 115" fill="none" stroke="#d98582" stroke-width="24" stroke-linecap="round" stroke-linejoin="round" /><path d="M219 130L202 99L279 91" fill="none" stroke="#2b5662" stroke-width="23" stroke-linecap="round" stroke-linejoin="round" /><path d="M219 130L202 99L279 91" fill="none" stroke="#86b7d3" stroke-width="19" stroke-linecap="round" stroke-linejoin="round" /><path d="M143 167L144 256" fill="none" stroke="#2b5662" stroke-width="23" stroke-linecap="round" stroke-linejoin="round" /><path d="M143 167L144 256" fill="none" stroke="#86b7d3" stroke-width="19" stroke-linecap="round" stroke-linejoin="round" /></g><g id="heart-wall-497"><path d="M198 115C160 85 117 125 128 178C134 228 184 270 222 290C255 260 293 204 279 156C274 127 249 111 230 124Z" fill="#d98582" stroke="#2b5662" stroke-width="2" stroke-linecap="round" stroke-linejoin="round" /></g><g id="right-atrium-498"><path d="M155 121Q186 112 192 157L181 187L145 174Q130 139 155 121Z" fill="#c3dce9" stroke="#2b5662" stroke-width="2" stroke-linecap="round" stroke-linejoin="round" /></g><g id="right-ventricle-499"><path d="M147 191L184 190Q197 237 215 267Q161 237 147 191Z" fill="#86b7d3" stroke="#2b5662" stroke-width="2" stroke-linecap="round" stroke-linejoin="round" /></g><g id="left-atrium-500"><path d="M224 136Q252 119 268 153L258 182L216 179Z" fill="#edb4a9" stroke="#2b5662" stroke-width="2" stroke-linecap="round" stroke-linejoin="round" /></g><g id="left-ventricle-501"><path d="M215 195L257 195Q257 237 225 269Q209 237 215 195Z" fill="#eeb8a4" stroke="#2b5662" stroke-width="2" stroke-linecap="round" stroke-linejoin="round" /></g><g id="septum-502"><path d="M200 171Q198 224 223 278" fill="none" stroke="#ae686d" stroke-width="8" stroke-linecap="round" stroke-linejoin="round" /></g><g id="valves-503"><path d="M148 184L165 194L181 184M215 187L235 197L256 187" fill="none" stroke="#f3e5d6" stroke-width="4" stroke-linecap="round" stroke-linejoin="round" /></g><g id="pulmonary-veins-504"><path d="M264 146L302 136" fill="none" stroke="#2b5662" stroke-width="14" stroke-linecap="round" stroke-linejoin="round" /><path d="M264 146L302 136" fill="none" stroke="#d98582" stroke-width="10" stroke-linecap="round" stroke-linejoin="round" /><path d="M264 163L305 158" fill="none" stroke="#2b5662" stroke-width="14" stroke-linecap="round" stroke-linejoin="round" /><path d="M264 163L305 158" fill="none" stroke="#d98582" stroke-width="10" stroke-linecap="round" stroke-linejoin="round" /></g></g></svg>